<svg xmlns="http://www.w3.org/2000/svg" xmlns:xlink="http://www.w3.org/1999/xlink" width="500" zoomAndPan="magnify" viewBox="0 0 375 374.999991" height="500" preserveAspectRatio="xMidYMid meet" version="1.0"><defs><g/><clipPath id="27b2730a38"><path d="M 57.332031 197.28125 L 304.46875 197.28125 L 304.46875 236.808594 L 57.332031 236.808594 Z M 57.332031 197.28125 " clip-rule="nonzero"/></clipPath><clipPath id="4a47435476"><path d="M 72.71875 209.734375 C 69.898438 208.535156 67.894531 211.308594 67.894531 212.808594 C 67.820312 214.308594 69.304688 216.109375 70.789062 217.382812 C 72.941406 219.257812 76.800781 220.535156 80.511719 221.660156 C 85.410156 223.160156 91.421875 224.359375 97.65625 224.882812 C 105.003906 225.632812 113.242188 225.484375 121.777344 224.957031 C 131.425781 224.359375 142.929688 222.558594 152.429688 220.910156 C 160.742188 219.558594 168.609375 216.933594 175.734375 216.109375 C 181.746094 215.359375 185.308594 214.910156 192.433594 215.433594 C 205.125 216.410156 231.25 223.984375 245.203125 225.410156 C 254.332031 226.382812 263.015625 226.082031 267.988281 225.933594 C 270.4375 225.859375 271.328125 225.933594 273.40625 225.410156 C 276.523438 224.734375 281.644531 222.859375 284.390625 221.207031 C 286.320312 220.007812 287.582031 218.734375 288.84375 217.234375 C 290.105469 215.882812 290.996094 214.535156 291.886719 212.734375 C 292.925781 210.484375 293.296875 206.433594 294.335938 204.558594 C 295.003906 203.359375 295.671875 202.535156 296.5625 202.007812 C 297.453125 201.484375 298.789062 201.257812 299.828125 201.332031 C 300.867188 201.484375 302.054688 202.082031 302.796875 202.832031 C 303.539062 203.582031 304.207031 204.707031 304.28125 205.832031 C 304.355469 207.183594 303.6875 209.507812 302.648438 210.484375 C 301.609375 211.457031 299.234375 211.910156 297.898438 211.683594 C 296.859375 211.535156 295.746094 210.707031 295.152344 209.882812 C 294.484375 209.058594 293.890625 207.859375 293.964844 206.734375 C 294.039062 205.382812 295.078125 203.207031 296.117188 202.308594 C 296.933594 201.632812 298.195312 201.332031 299.234375 201.332031 C 300.273438 201.332031 301.535156 201.785156 302.351562 202.457031 C 303.167969 203.132812 303.910156 204.183594 304.207031 205.308594 C 304.503906 206.660156 304.058594 208.308594 303.539062 210.183594 C 302.796875 213.035156 301.015625 217.757812 299.457031 220.382812 C 298.34375 222.332031 297.15625 223.535156 295.746094 225.035156 C 294.335938 226.535156 292.925781 227.957031 290.847656 229.382812 C 288.101562 231.183594 284.167969 233.359375 280.457031 234.484375 C 276.523438 235.757812 272.8125 236.132812 267.988281 236.433594 C 261.457031 236.882812 253.886719 236.957031 244.683594 235.984375 C 230.953125 234.484375 205.273438 227.058594 193.992188 225.933594 C 188.351562 225.410156 186.347656 225.484375 181.300781 226.007812 C 173.730469 226.757812 162.597656 229.910156 153.097656 231.484375 C 143.449219 233.058594 133.652344 234.785156 123.855469 235.308594 C 113.835938 235.910156 102.257812 235.757812 93.574219 234.785156 C 86.96875 234.109375 81.179688 232.910156 76.28125 231.332031 C 72.347656 230.132812 69.007812 228.410156 66.1875 226.832031 C 64.105469 225.632812 62.25 224.507812 60.914062 223.007812 C 59.652344 221.582031 58.835938 219.859375 58.242188 218.132812 C 57.648438 216.332031 57.5 214.234375 57.5 212.359375 C 57.5 210.484375 57.574219 208.609375 58.242188 206.734375 C 58.835938 204.785156 60.023438 202.457031 61.433594 200.957031 C 62.769531 199.609375 64.699219 198.484375 66.484375 197.957031 C 68.191406 197.433594 70.121094 197.285156 71.976562 197.660156 C 74.128906 198.183594 77.171875 199.757812 78.730469 201.109375 C 79.769531 202.082031 80.4375 203.207031 80.734375 204.183594 C 81.03125 205.082031 80.957031 205.910156 80.734375 206.734375 C 80.511719 207.484375 80.140625 208.308594 79.546875 208.910156 C 78.804688 209.660156 77.394531 210.484375 76.28125 210.632812 C 75.09375 210.785156 72.71875 209.734375 72.71875 209.734375 " clip-rule="nonzero"/></clipPath></defs><rect x="-37.5" width="450" fill="#ffffff" y="-37.499999" height="449.999989" fill-opacity="1"/><rect x="-37.5" width="450" fill="#000000" y="-37.499999" height="449.999989" fill-opacity="1"/><g fill="#ffffff" fill-opacity="1"><g transform="translate(260.086328, 163.077411)"><g><path d="M 0.3125 -8.96875 L 2.625 -8.90625 L 4.046875 -2.40625 L 5.9375 -8.8125 L 7.90625 -8.75 L 9.5 -2.125 L 11.28125 -8.65625 L 13.359375 -8.59375 L 10.46875 0.296875 L 8.234375 0.234375 L 6.71875 -5.6875 L 4.96875 0.140625 L 2.75 0.078125 Z M 0.3125 -8.96875 "/></g></g></g><g fill="#ffffff" fill-opacity="1"><g transform="translate(271.991503, 163.451548)"><g><path d="M 2.296875 -3.84375 C 2.535156 -4.425781 2.867188 -4.941406 3.296875 -5.390625 C 3.722656 -5.835938 4.207031 -6.179688 4.75 -6.421875 C 5.90625 -6.929688 7.125 -6.910156 8.40625 -6.359375 C 9.6875 -5.828125 10.535156 -4.992188 10.953125 -3.859375 C 11.335938 -2.785156 11.269531 -1.632812 10.75 -0.40625 C 10.226562 0.820312 9.4375 1.679688 8.375 2.171875 C 7.21875 2.691406 5.992188 2.675781 4.703125 2.125 C 3.359375 1.550781 2.484375 0.6875 2.078125 -0.46875 C 1.710938 -1.519531 1.785156 -2.644531 2.296875 -3.84375 Z M 4.21875 -3.078125 C 4.082031 -2.753906 4.003906 -2.410156 3.984375 -2.046875 C 3.960938 -1.679688 4.007812 -1.347656 4.125 -1.046875 C 4.363281 -0.378906 4.835938 0.101562 5.546875 0.40625 C 6.203125 0.675781 6.820312 0.660156 7.40625 0.359375 C 7.957031 0.0664062 8.390625 -0.441406 8.703125 -1.171875 C 9.015625 -1.910156 9.078125 -2.585938 8.890625 -3.203125 C 8.691406 -3.847656 8.238281 -4.320312 7.53125 -4.625 C 6.8125 -4.925781 6.140625 -4.914062 5.515625 -4.59375 C 4.941406 -4.269531 4.507812 -3.765625 4.21875 -3.078125 Z M 4.21875 -3.078125 "/></g></g></g><g fill="#ffffff" fill-opacity="1"><g transform="translate(280.528866, 167.24944)"><g><path d="M 3.1875 1.234375 C 2.882812 1.628906 2.703125 1.894531 2.640625 2.03125 L 0.9375 0.71875 L 6.421875 -6.375 L 8.078125 -5.09375 L 7.671875 -4.578125 C 8.398438 -4.710938 8.976562 -4.613281 9.40625 -4.28125 C 9.832031 -3.957031 10.125 -3.648438 10.28125 -3.359375 L 8.765625 -1.625 L 8.703125 -1.640625 C 8.753906 -2.035156 8.535156 -2.425781 8.046875 -2.8125 C 7.859375 -2.957031 7.613281 -3.039062 7.3125 -3.0625 C 7.019531 -3.082031 6.71875 -3.046875 6.40625 -2.953125 Z M 3.1875 1.234375 "/></g></g></g><g fill="#ffffff" fill-opacity="1"><g transform="translate(284.735971, 170.002757)"><g><path d="M 3.046875 2.0625 C 2.648438 2.375 2.359375 2.625 2.171875 2.8125 L 0.84375 1.09375 L 10.5625 -6.40625 L 11.859375 -4.734375 L 5.90625 -0.140625 L 11.625 0.390625 L 13.1875 2.40625 L 8.296875 1.90625 L 7.390625 5.046875 C 7.117188 5.773438 6.925781 6.320312 6.8125 6.6875 L 6.53125 7.625 C 6.457031 7.894531 6.410156 8.113281 6.390625 8.28125 L 5.5625 7.203125 C 5.25 6.804688 4.953125 6.488281 4.671875 6.25 L 6.125 1.75 L 3.765625 1.515625 Z M 3.046875 2.0625 "/></g></g></g><g fill="#ffffff" fill-opacity="1"><g transform="translate(290.394034, 177.246961)"><g><path d="M 1.359375 4.0625 C 0.796875 2.550781 0.648438 1.304688 0.921875 0.328125 C 1.097656 0.273438 1.289062 0.222656 1.5 0.171875 L 2.09375 0.046875 C 2.488281 -0.0546875 2.734375 -0.117188 2.828125 -0.140625 C 2.929688 -0.171875 2.988281 -0.179688 3 -0.171875 C 3.007812 -0.171875 2.984375 -0.113281 2.921875 0 C 2.859375 0.101562 2.796875 0.296875 2.734375 0.578125 C 2.679688 0.859375 2.664062 1.164062 2.6875 1.5 C 2.695312 2.226562 2.828125 2.9375 3.078125 3.625 C 3.421875 4.550781 3.90625 4.894531 4.53125 4.65625 C 4.726562 4.582031 4.847656 4.441406 4.890625 4.234375 C 4.929688 3.847656 4.878906 3.332031 4.734375 2.6875 C 4.585938 2.039062 4.519531 1.492188 4.53125 1.046875 C 4.539062 0.597656 4.613281 0.210938 4.75 -0.109375 C 5.007812 -0.722656 5.484375 -1.160156 6.171875 -1.421875 C 7.015625 -1.734375 7.796875 -1.65625 8.515625 -1.1875 C 9.222656 -0.71875 9.785156 0.078125 10.203125 1.203125 C 10.617188 2.316406 10.65625 3.382812 10.3125 4.40625 C 10.144531 4.414062 9.992188 4.429688 9.859375 4.453125 C 9.453125 4.460938 9.164062 4.460938 9 4.453125 L 8.453125 4.4375 C 8.398438 4.445312 8.375 4.453125 8.375 4.453125 C 8.375 4.441406 8.410156 4.375 8.484375 4.25 C 8.753906 3.769531 8.820312 3.144531 8.6875 2.375 C 8.644531 2.144531 8.582031 1.914062 8.5 1.6875 C 8.132812 0.707031 7.65625 0.328125 7.0625 0.546875 C 6.863281 0.617188 6.742188 0.78125 6.703125 1.03125 C 6.648438 1.476562 6.695312 2.050781 6.84375 2.75 C 6.988281 3.457031 7.039062 4.015625 7 4.421875 C 6.96875 4.828125 6.875 5.171875 6.71875 5.453125 C 6.457031 6.003906 5.976562 6.40625 5.28125 6.65625 C 4.519531 6.9375 3.789062 6.863281 3.09375 6.4375 C 2.363281 5.988281 1.785156 5.195312 1.359375 4.0625 Z M 1.359375 4.0625 "/></g></g></g><g fill="#ffffff" fill-opacity="1"><g transform="translate(66.913258, 211.333551)"><g><path d="M 38.375 -20.84375 C 38.375 -19.625 38.253906 -18.25 38.015625 -16.71875 C 37.773438 -15.195312 37.363281 -13.617188 36.78125 -11.984375 C 36.195312 -10.359375 35.398438 -8.78125 34.390625 -7.25 C 33.390625 -5.726562 32.117188 -4.359375 30.578125 -3.140625 C 29.046875 -1.921875 27.203125 -0.953125 25.046875 -0.234375 C 22.898438 0.472656 20.382812 0.828125 17.5 0.828125 C 14.320312 0.828125 11.675781 0.503906 9.5625 -0.140625 C 7.457031 -0.785156 5.847656 -1.847656 4.734375 -3.328125 C 3.617188 -4.816406 2.941406 -6.835938 2.703125 -9.390625 C 2.410156 -12.617188 2.269531 -16.664062 2.28125 -21.53125 C 2.300781 -26.394531 2.484375 -31.828125 2.828125 -37.828125 C 4.148438 -38.585938 5.722656 -39.1875 7.546875 -39.625 C 9.378906 -40.0625 11.316406 -40.335938 13.359375 -40.453125 C 15.398438 -40.578125 17.414062 -40.5625 19.40625 -40.40625 C 21.394531 -40.25 23.21875 -39.984375 24.875 -39.609375 C 26.53125 -39.242188 27.890625 -38.78125 28.953125 -38.21875 C 32.160156 -36.519531 34.53125 -34.265625 36.0625 -31.453125 C 37.601562 -28.648438 38.375 -25.113281 38.375 -20.84375 Z M 18.328125 -11.765625 C 19.097656 -11.796875 19.859375 -11.882812 20.609375 -12.03125 C 21.367188 -12.175781 22.066406 -12.519531 22.703125 -13.0625 C 23.335938 -13.601562 23.84375 -14.453125 24.21875 -15.609375 C 24.59375 -16.765625 24.78125 -18.347656 24.78125 -20.359375 C 24.78125 -21.921875 24.597656 -23.171875 24.234375 -24.109375 C 23.878906 -25.054688 23.394531 -25.769531 22.78125 -26.25 C 22.175781 -26.726562 21.507812 -27.03125 20.78125 -27.15625 C 20.050781 -27.289062 19.304688 -27.332031 18.546875 -27.28125 C 17.796875 -27.226562 17.101562 -27.132812 16.46875 -27 C 16.46875 -26.363281 16.457031 -25.507812 16.4375 -24.4375 C 16.425781 -23.363281 16.421875 -22.171875 16.421875 -20.859375 C 16.421875 -19.546875 16.421875 -18.21875 16.421875 -16.875 C 16.421875 -15.539062 16.4375 -14.316406 16.46875 -13.203125 C 16.488281 -12.597656 16.726562 -12.207031 17.1875 -12.03125 C 17.65625 -11.851562 18.035156 -11.765625 18.328125 -11.765625 Z M 18.328125 -11.765625 "/></g></g></g><g fill="#ffffff" fill-opacity="1"><g transform="translate(106.64689, 211.333551)"><g><path d="M 2.1875 -9.1875 C 2.132812 -10.09375 2.09375 -11.304688 2.0625 -12.828125 C 2.039062 -14.347656 2.03125 -16.054688 2.03125 -17.953125 C 2.03125 -19.847656 2.046875 -21.8125 2.078125 -23.84375 C 2.117188 -25.875 2.171875 -27.867188 2.234375 -29.828125 C 2.304688 -31.785156 2.390625 -33.597656 2.484375 -35.265625 C 2.578125 -36.941406 2.691406 -38.335938 2.828125 -39.453125 C 4.148438 -39.585938 5.757812 -39.6875 7.65625 -39.75 C 9.550781 -39.8125 11.582031 -39.859375 13.75 -39.890625 C 15.925781 -39.921875 18.109375 -39.914062 20.296875 -39.875 C 22.484375 -39.832031 24.550781 -39.769531 26.5 -39.6875 C 28.457031 -39.613281 30.132812 -39.519531 31.53125 -39.40625 C 31.769531 -39.0625 31.984375 -38.53125 32.171875 -37.8125 C 32.359375 -37.101562 32.457031 -36.296875 32.46875 -35.390625 C 32.488281 -34.492188 32.378906 -33.582031 32.140625 -32.65625 C 31.898438 -31.726562 31.476562 -30.863281 30.875 -30.0625 C 30.28125 -29.269531 29.457031 -28.632812 28.40625 -28.15625 C 27.363281 -27.675781 26.046875 -27.4375 24.453125 -27.4375 C 23.921875 -27.4375 23.429688 -27.4375 22.984375 -27.4375 C 22.535156 -27.4375 22.03125 -27.4375 21.46875 -27.4375 C 20.914062 -27.4375 20.226562 -27.4375 19.40625 -27.4375 C 18.582031 -27.4375 17.535156 -27.4375 16.265625 -27.4375 C 16.265625 -27.125 16.265625 -26.800781 16.265625 -26.46875 C 16.265625 -26.132812 16.265625 -25.769531 16.265625 -25.375 C 16.847656 -25.375 17.648438 -25.382812 18.671875 -25.40625 C 19.691406 -25.4375 20.796875 -25.453125 21.984375 -25.453125 C 23.179688 -25.453125 24.359375 -25.398438 25.515625 -25.296875 C 26.671875 -25.191406 27.671875 -25.003906 28.515625 -24.734375 C 29.304688 -22.984375 29.632812 -21.351562 29.5 -19.84375 C 29.375 -18.332031 28.785156 -17.097656 27.734375 -16.140625 C 26.691406 -15.191406 25.1875 -14.664062 23.21875 -14.5625 C 22.5625 -14.53125 21.941406 -14.515625 21.359375 -14.515625 C 20.773438 -14.515625 20.097656 -14.519531 19.328125 -14.53125 C 18.554688 -14.550781 17.550781 -14.5625 16.3125 -14.5625 C 16.3125 -14.132812 16.3125 -13.726562 16.3125 -13.34375 C 16.3125 -12.957031 16.3125 -12.550781 16.3125 -12.125 C 16.4375 -12.125 16.578125 -12.125 16.734375 -12.125 C 16.898438 -12.125 17.0625 -12.125 17.21875 -12.125 C 19.34375 -12.125 21.472656 -12.125 23.609375 -12.125 C 25.742188 -12.125 27.867188 -12.125 29.984375 -12.125 C 30.753906 -11.070312 31.242188 -9.898438 31.453125 -8.609375 C 31.671875 -7.328125 31.578125 -6.070312 31.171875 -4.84375 C 30.773438 -3.625 30.019531 -2.570312 28.90625 -1.6875 C 27.800781 -0.800781 26.304688 -0.238281 24.421875 0 C 23.753906 0.0820312 22.859375 0.15625 21.734375 0.21875 C 20.609375 0.28125 19.367188 0.316406 18.015625 0.328125 C 16.660156 0.347656 15.3125 0.34375 13.96875 0.3125 C 12.632812 0.289062 11.429688 0.238281 10.359375 0.15625 C 9.285156 0.0820312 8.457031 -0.0195312 7.875 -0.15625 C 6.019531 -0.632812 4.644531 -1.582031 3.75 -3 C 2.863281 -4.414062 2.34375 -6.476562 2.1875 -9.1875 Z M 2.1875 -9.1875 "/></g></g></g><g fill="#ffffff" fill-opacity="1"><g transform="translate(140.1361, 211.333551)"><g><path d="M 22.59375 -22.671875 C 22.613281 -22.671875 22.628906 -22.671875 22.640625 -22.671875 C 22.660156 -22.671875 22.679688 -22.671875 22.703125 -22.671875 C 22.679688 -22.671875 22.660156 -22.671875 22.640625 -22.671875 C 22.628906 -22.671875 22.613281 -22.671875 22.59375 -22.671875 Z M 8.234375 -7.359375 C 7.804688 -8.421875 7.367188 -9.78125 6.921875 -11.4375 C 6.472656 -13.09375 6.03125 -14.929688 5.59375 -16.953125 C 5.15625 -18.984375 4.722656 -21.066406 4.296875 -23.203125 C 3.867188 -25.335938 3.460938 -27.425781 3.078125 -29.46875 C 2.691406 -31.507812 2.351562 -33.363281 2.0625 -35.03125 C 2.300781 -35.882812 2.78125 -36.65625 3.5 -37.34375 C 4.21875 -38.03125 5.066406 -38.597656 6.046875 -39.046875 C 7.023438 -39.503906 8.054688 -39.78125 9.140625 -39.875 C 10.234375 -39.96875 11.28125 -39.835938 12.28125 -39.484375 C 13.289062 -39.140625 14.171875 -38.535156 14.921875 -37.671875 C 15.679688 -36.816406 16.222656 -35.644531 16.546875 -34.15625 C 17.128906 -31.476562 17.65625 -28.8125 18.125 -26.15625 C 18.601562 -23.507812 19.015625 -21.0625 19.359375 -18.8125 C 19.710938 -16.5625 19.976562 -14.664062 20.15625 -13.125 C 20.21875 -13.125 20.28125 -13.125 20.34375 -13.125 C 20.40625 -13.125 20.460938 -13.125 20.515625 -13.125 C 20.890625 -14.6875 21.253906 -16.265625 21.609375 -17.859375 C 21.972656 -19.453125 22.335938 -21.054688 22.703125 -22.671875 C 23.023438 -24.078125 23.351562 -25.617188 23.6875 -27.296875 C 24.019531 -28.984375 24.34375 -30.628906 24.65625 -32.234375 C 24.976562 -33.835938 25.265625 -35.253906 25.515625 -36.484375 C 25.765625 -37.722656 25.957031 -38.59375 26.09375 -39.09375 C 28.5 -40 30.578125 -40.332031 32.328125 -40.09375 C 34.078125 -39.851562 35.472656 -39.15625 36.515625 -38 C 37.566406 -36.84375 38.257812 -35.347656 38.59375 -33.515625 C 38.925781 -31.691406 38.878906 -29.65625 38.453125 -27.40625 C 38.160156 -25.78125 37.765625 -23.976562 37.265625 -22 C 36.765625 -20.03125 36.207031 -18.003906 35.59375 -15.921875 C 34.988281 -13.847656 34.359375 -11.820312 33.703125 -9.84375 C 33.054688 -7.863281 32.425781 -6.070312 31.8125 -4.46875 C 31.207031 -2.863281 30.648438 -1.5625 30.140625 -0.5625 C 29.242188 -0.269531 28.1875 0.0195312 26.96875 0.3125 C 25.75 0.601562 24.445312 0.804688 23.0625 0.921875 C 21.6875 1.046875 20.28125 1.03125 18.84375 0.875 C 17.414062 0.71875 16.03125 0.34375 14.6875 -0.25 C 13.351562 -0.851562 12.128906 -1.722656 11.015625 -2.859375 C 9.898438 -4.003906 8.972656 -5.503906 8.234375 -7.359375 Z M 8.234375 -7.359375 "/></g></g></g><g fill="#ffffff" fill-opacity="1"><g transform="translate(181.977723, 211.333551)"><g><path d="M 2.1875 -9.1875 C 2.132812 -10.09375 2.09375 -11.304688 2.0625 -12.828125 C 2.039062 -14.347656 2.03125 -16.054688 2.03125 -17.953125 C 2.03125 -19.847656 2.046875 -21.8125 2.078125 -23.84375 C 2.117188 -25.875 2.171875 -27.867188 2.234375 -29.828125 C 2.304688 -31.785156 2.390625 -33.597656 2.484375 -35.265625 C 2.578125 -36.941406 2.691406 -38.335938 2.828125 -39.453125 C 4.148438 -39.585938 5.757812 -39.6875 7.65625 -39.75 C 9.550781 -39.8125 11.582031 -39.859375 13.75 -39.890625 C 15.925781 -39.921875 18.109375 -39.914062 20.296875 -39.875 C 22.484375 -39.832031 24.550781 -39.769531 26.5 -39.6875 C 28.457031 -39.613281 30.132812 -39.519531 31.53125 -39.40625 C 31.769531 -39.0625 31.984375 -38.53125 32.171875 -37.8125 C 32.359375 -37.101562 32.457031 -36.296875 32.46875 -35.390625 C 32.488281 -34.492188 32.378906 -33.582031 32.140625 -32.65625 C 31.898438 -31.726562 31.476562 -30.863281 30.875 -30.0625 C 30.28125 -29.269531 29.457031 -28.632812 28.40625 -28.15625 C 27.363281 -27.675781 26.046875 -27.4375 24.453125 -27.4375 C 23.921875 -27.4375 23.429688 -27.4375 22.984375 -27.4375 C 22.535156 -27.4375 22.03125 -27.4375 21.46875 -27.4375 C 20.914062 -27.4375 20.226562 -27.4375 19.40625 -27.4375 C 18.582031 -27.4375 17.535156 -27.4375 16.265625 -27.4375 C 16.265625 -27.125 16.265625 -26.800781 16.265625 -26.46875 C 16.265625 -26.132812 16.265625 -25.769531 16.265625 -25.375 C 16.847656 -25.375 17.648438 -25.382812 18.671875 -25.40625 C 19.691406 -25.4375 20.796875 -25.453125 21.984375 -25.453125 C 23.179688 -25.453125 24.359375 -25.398438 25.515625 -25.296875 C 26.671875 -25.191406 27.671875 -25.003906 28.515625 -24.734375 C 29.304688 -22.984375 29.632812 -21.351562 29.5 -19.84375 C 29.375 -18.332031 28.785156 -17.097656 27.734375 -16.140625 C 26.691406 -15.191406 25.1875 -14.664062 23.21875 -14.5625 C 22.5625 -14.53125 21.941406 -14.515625 21.359375 -14.515625 C 20.773438 -14.515625 20.097656 -14.519531 19.328125 -14.53125 C 18.554688 -14.550781 17.550781 -14.5625 16.3125 -14.5625 C 16.3125 -14.132812 16.3125 -13.726562 16.3125 -13.34375 C 16.3125 -12.957031 16.3125 -12.550781 16.3125 -12.125 C 16.4375 -12.125 16.578125 -12.125 16.734375 -12.125 C 16.898438 -12.125 17.0625 -12.125 17.21875 -12.125 C 19.34375 -12.125 21.472656 -12.125 23.609375 -12.125 C 25.742188 -12.125 27.867188 -12.125 29.984375 -12.125 C 30.753906 -11.070312 31.242188 -9.898438 31.453125 -8.609375 C 31.671875 -7.328125 31.578125 -6.070312 31.171875 -4.84375 C 30.773438 -3.625 30.019531 -2.570312 28.90625 -1.6875 C 27.800781 -0.800781 26.304688 -0.238281 24.421875 0 C 23.753906 0.0820312 22.859375 0.15625 21.734375 0.21875 C 20.609375 0.28125 19.367188 0.316406 18.015625 0.328125 C 16.660156 0.347656 15.3125 0.34375 13.96875 0.3125 C 12.632812 0.289062 11.429688 0.238281 10.359375 0.15625 C 9.285156 0.0820312 8.457031 -0.0195312 7.875 -0.15625 C 6.019531 -0.632812 4.644531 -1.582031 3.75 -3 C 2.863281 -4.414062 2.34375 -6.476562 2.1875 -9.1875 Z M 2.1875 -9.1875 "/></g></g></g><g fill="#ffffff" fill-opacity="1"><g transform="translate(215.466933, 211.333551)"><g><path d="M 2.1875 -9.1875 C 2.132812 -10.09375 2.09375 -11.304688 2.0625 -12.828125 C 2.039062 -14.347656 2.03125 -16.054688 2.03125 -17.953125 C 2.03125 -19.847656 2.046875 -21.8125 2.078125 -23.84375 C 2.117188 -25.875 2.171875 -27.867188 2.234375 -29.828125 C 2.304688 -31.785156 2.390625 -33.597656 2.484375 -35.265625 C 2.578125 -36.941406 2.691406 -38.335938 2.828125 -39.453125 C 4.148438 -39.585938 5.757812 -39.6875 7.65625 -39.75 C 9.550781 -39.8125 11.582031 -39.859375 13.75 -39.890625 C 15.925781 -39.921875 18.109375 -39.914062 20.296875 -39.875 C 22.484375 -39.832031 24.550781 -39.769531 26.5 -39.6875 C 28.457031 -39.613281 30.132812 -39.519531 31.53125 -39.40625 C 31.769531 -39.0625 31.984375 -38.53125 32.171875 -37.8125 C 32.359375 -37.101562 32.457031 -36.296875 32.46875 -35.390625 C 32.488281 -34.492188 32.378906 -33.582031 32.140625 -32.65625 C 31.898438 -31.726562 31.476562 -30.863281 30.875 -30.0625 C 30.28125 -29.269531 29.457031 -28.632812 28.40625 -28.15625 C 27.363281 -27.675781 26.046875 -27.4375 24.453125 -27.4375 C 23.921875 -27.4375 23.429688 -27.4375 22.984375 -27.4375 C 22.535156 -27.4375 22.03125 -27.4375 21.46875 -27.4375 C 20.914062 -27.4375 20.226562 -27.4375 19.40625 -27.4375 C 18.582031 -27.4375 17.535156 -27.4375 16.265625 -27.4375 C 16.265625 -27.125 16.265625 -26.800781 16.265625 -26.46875 C 16.265625 -26.132812 16.265625 -25.769531 16.265625 -25.375 C 16.847656 -25.375 17.648438 -25.382812 18.671875 -25.40625 C 19.691406 -25.4375 20.796875 -25.453125 21.984375 -25.453125 C 23.179688 -25.453125 24.359375 -25.398438 25.515625 -25.296875 C 26.671875 -25.191406 27.671875 -25.003906 28.515625 -24.734375 C 29.304688 -22.984375 29.632812 -21.351562 29.5 -19.84375 C 29.375 -18.332031 28.785156 -17.097656 27.734375 -16.140625 C 26.691406 -15.191406 25.1875 -14.664062 23.21875 -14.5625 C 22.5625 -14.53125 21.941406 -14.515625 21.359375 -14.515625 C 20.773438 -14.515625 20.097656 -14.519531 19.328125 -14.53125 C 18.554688 -14.550781 17.550781 -14.5625 16.3125 -14.5625 C 16.3125 -14.132812 16.3125 -13.726562 16.3125 -13.34375 C 16.3125 -12.957031 16.3125 -12.550781 16.3125 -12.125 C 16.4375 -12.125 16.578125 -12.125 16.734375 -12.125 C 16.898438 -12.125 17.0625 -12.125 17.21875 -12.125 C 19.34375 -12.125 21.472656 -12.125 23.609375 -12.125 C 25.742188 -12.125 27.867188 -12.125 29.984375 -12.125 C 30.753906 -11.070312 31.242188 -9.898438 31.453125 -8.609375 C 31.671875 -7.328125 31.578125 -6.070312 31.171875 -4.84375 C 30.773438 -3.625 30.019531 -2.570312 28.90625 -1.6875 C 27.800781 -0.800781 26.304688 -0.238281 24.421875 0 C 23.753906 0.0820312 22.859375 0.15625 21.734375 0.21875 C 20.609375 0.28125 19.367188 0.316406 18.015625 0.328125 C 16.660156 0.347656 15.3125 0.34375 13.96875 0.3125 C 12.632812 0.289062 11.429688 0.238281 10.359375 0.15625 C 9.285156 0.0820312 8.457031 -0.0195312 7.875 -0.15625 C 6.019531 -0.632812 4.644531 -1.582031 3.75 -3 C 2.863281 -4.414062 2.34375 -6.476562 2.1875 -9.1875 Z M 2.1875 -9.1875 "/></g></g></g><g fill="#ffffff" fill-opacity="1"><g transform="translate(248.956143, 211.333551)"><g><path d="M 29.90625 -18.765625 C 30.226562 -18.054688 30.644531 -17.164062 31.15625 -16.09375 C 31.675781 -15.019531 32.234375 -13.867188 32.828125 -12.640625 C 33.421875 -11.421875 33.992188 -10.207031 34.546875 -9 C 35.109375 -7.800781 35.578125 -6.695312 35.953125 -5.6875 C 35.867188 -4.550781 35.460938 -3.488281 34.734375 -2.5 C 34.003906 -1.519531 33.078125 -0.722656 31.953125 -0.109375 C 30.828125 0.492188 29.617188 0.804688 28.328125 0.828125 C 27.046875 0.859375 25.785156 0.484375 24.546875 -0.296875 C 23.316406 -1.078125 22.238281 -2.367188 21.3125 -4.171875 C 20.96875 -4.859375 20.550781 -5.78125 20.0625 -6.9375 C 19.570312 -8.09375 19.0625 -9.320312 18.53125 -10.625 C 17.894531 -9.1875 17.25 -7.75 16.59375 -6.3125 C 15.945312 -4.882812 15.382812 -3.617188 14.90625 -2.515625 C 14.4375 -1.421875 14.09375 -0.648438 13.875 -0.203125 C 11.675781 0.304688 9.832031 0.441406 8.34375 0.203125 C 6.863281 -0.0351562 5.675781 -0.519531 4.78125 -1.25 C 3.894531 -1.976562 3.253906 -2.816406 2.859375 -3.765625 C 2.460938 -4.722656 2.242188 -5.679688 2.203125 -6.640625 C 2.160156 -7.597656 2.25 -8.40625 2.46875 -9.0625 C 2.894531 -10.414062 3.40625 -11.660156 4 -12.796875 C 4.59375 -13.941406 5.203125 -15.023438 5.828125 -16.046875 C 6.453125 -17.066406 7.003906 -18.039062 7.484375 -18.96875 C 7.554688 -19.125 7.585938 -19.316406 7.578125 -19.546875 C 7.566406 -19.773438 7.519531 -19.96875 7.4375 -20.125 C 6.375 -22.476562 5.289062 -24.820312 4.1875 -27.15625 C 3.09375 -29.488281 2.003906 -31.820312 0.921875 -34.15625 C 1.097656 -35.269531 1.601562 -36.25 2.4375 -37.09375 C 3.28125 -37.945312 4.285156 -38.613281 5.453125 -39.09375 C 6.617188 -39.570312 7.820312 -39.835938 9.0625 -39.890625 C 10.3125 -39.941406 11.457031 -39.726562 12.5 -39.25 C 13.550781 -38.769531 14.34375 -38.003906 14.875 -36.953125 C 15.59375 -35.566406 16.296875 -34.082031 16.984375 -32.5 C 17.671875 -30.925781 18.304688 -29.382812 18.890625 -27.875 C 19.816406 -29.757812 20.828125 -31.75 21.921875 -33.84375 C 23.023438 -35.9375 24.148438 -37.875 25.296875 -39.65625 C 26.304688 -40 27.363281 -40.125 28.46875 -40.03125 C 29.582031 -39.9375 30.648438 -39.632812 31.671875 -39.125 C 32.691406 -38.625 33.566406 -37.941406 34.296875 -37.078125 C 35.023438 -36.222656 35.488281 -35.203125 35.6875 -34.015625 C 35.894531 -32.835938 35.734375 -31.507812 35.203125 -30.03125 C 34.585938 -28.351562 33.820312 -26.765625 32.90625 -25.265625 C 31.988281 -23.773438 31.03125 -22.007812 30.03125 -19.96875 C 29.789062 -19.570312 29.75 -19.171875 29.90625 -18.765625 Z M 29.90625 -18.765625 "/></g></g></g><g clip-path="url(#27b2730a38)"><g clip-path="url(#4a47435476)"><path fill="#ffffff" d="M 54.53125 194.660156 L 307.265625 194.660156 L 307.265625 239.433594 L 54.53125 239.433594 Z M 54.53125 194.660156 " fill-opacity="1" fill-rule="nonzero"/></g></g></svg>